<?xml version="1.0" encoding="utf-8"?>
<!-- (c) ammap.com | SVG map of Central America high -->
<svg xmlns="http://www.w3.org/2000/svg" xmlns:amcharts="http://amcharts.com/ammap" xmlns:xlink="http://www.w3.org/1999/xlink" version="1.1">
	<defs>
		<style type="text/css">
			.land
			{
				fill: #CCCCCC;
				fill-opacity: 1;
				stroke:white;
				stroke-opacity: 1;
				stroke-width:0.5;
			}
		</style>

		<amcharts:ammap projection="mercator" leftLongitude="-118.418561" topLatitude="32.733776" rightLongitude="-77.174832" bottomLatitude="7.199415"></amcharts:ammap>

		<!-- All areas are listed in the line below. You can use this list in your script. -->
		<!--{id:"BZ"},{id:"CR"},{id:"GT"},{id:"HN"},{id:"MX"},{id:"NI"},{id:"PA"},{id:"SV"}-->

	</defs>
	<g>
		<path id="BZ" title="Belize" class="land" d="M227.9,410.25l-0.15,0.33l0.15,0.04l0.14,-0.03l0.33,0.01l0.13,0.37l-0.03,0.31l-0.31,0.81l-0.04,0.28l-0.14,0.41l0.19,0.27l-0.18,0.36l-0.06,0.23L227.9,414l0.09,0.67l-0.15,0.96l-0.26,0.42l-0.16,0.16l-0.28,0.42l-0.37,0.12l-0.52,0.67l-0.09,0.18l0.05,0.19l-0.12,0l-0.5,-0.03l-0.33,0.03l-0.01,-0.02l0.03,-0.72l0.04,-1.12l0.03,-0.82l0.03,-0.8l0.02,-0.6l0.03,-0.82l0.03,-0.71l0,-0.26l0.08,-0.2l0.23,-0.08l0.3,0.18l0.13,0.07l0.11,-0.04l0.14,-0.11l0.18,-0.31l0.44,-0.64l0.18,-0.46l0.17,-0.09l0.25,-0.02L227.9,410.25zM228.87,411.85l-0.13,0.05l0.11,-0.17l0.02,-0.11l0.15,-0.45l0.11,0l0.03,0.04L228.87,411.85zM229.14,413.32l-0.22,0.41l-0.01,-0.12l0.09,-0.3l0.12,-0.11l0.08,-0.11l0.02,-0.13l0.11,0.06l-0.03,0.13L229.14,413.32z"/>
		<path id="CR" title="Costa Rica" class="land" d="M240.96,432.05L241.03,432.16L241.11,432.34L241.15,432.57L241.5,433.33L241.79,433.76L242.41,434.53L242.68,434.67L243.14,435.3L243.29,435.4L243.38,435.58L243.86,435.74L243.99,435.85L243.97,435.9L243.92,435.95L243.85,436.01L243.76,436.05L243.54,435.93L243.32,435.8L243.2,435.86L243.15,436.03L243.07,436.12L242.97,436.15L242.93,436.21L242.92,436.77L242.93,437.31L243.09,437.32L243.37,437.5L243.49,437.61L243.52,437.71L243.49,437.76L243.29,437.88L243.09,438.03L242.99,438.21L243.17,438.5L243.2,438.71L243.2,438.92L243.15,439.02L242.77,439.26L242.68,439.34L242.7,439.4L242.91,439.57L243.01,439.73L243.09,439.93L243.1,440.1L242.91,439.78L242.64,439.48L242.42,439.3L242.4,438.87L242.31,438.64L241.96,438.42L241.66,438.27L241.44,438.3L241.58,438.55L241.93,438.87L241.95,438.99L241.94,439.15L241.7,439.13L241.49,439.06L241.24,439.04L241.06,438.94L240.7,438.56L240.96,438.24L241.04,438.03L241.03,437.59L240.97,437.38L240.69,437.05L240.25,436.7L239.62,436.4L239.33,436.17L238.6,435.99L238.32,435.87L238.11,435.65L238.07,435.49L238.15,435.25L237.95,434.93L237.08,434.32L236.59,434.1L236.49,433.96L236.41,433.92L236.48,434.34L236.7,434.6L237.25,434.84L237.41,434.98L237.47,435.16L237.14,435.5L236.98,435.59L236.93,435.78L236.83,435.83L236.72,435.72L236.27,435.18L235.39,434.92L235.24,434.77L234.91,434.27L234.76,433.82L234.82,433.52L235.17,433.05L235.29,432.85L235.26,432.72L235.28,432.54L235.14,432.41L234.81,432.24L234.6,432.1L234.66,432.04L235.04,431.85L235.06,431.69L235.06,431.64L235.12,431.63L235.18,431.58L235.21,431.54L235.31,431.38L235.4,431.29L235.51,431.27L235.64,431.34L236.11,431.51L236.65,431.7L237.4,431.97L237.72,431.8L237.99,431.67L238.17,431.68L238.58,431.84L238.83,431.89L238.98,431.87L239.24,432.09L239.38,432.26L239.4,432.38L239.48,432.44L239.68,432.45L240.18,432.56L240.48,432.54L240.76,432.42L240.91,432.28z"/>
		<path id="GT" title="Guatemala" class="land" d="M225.47,412.18L225.44,412.89L225.41,413.71L225.39,414.31L225.36,415.12L225.33,415.94L225.28,417.05L225.26,417.77L225.27,417.79L225.6,417.76L226.1,417.79L226.22,417.79L226.37,417.85L226.49,417.87L226.74,418.03L227.04,418.15L227.22,417.9L227.12,417.75L227.05,417.68L227.06,417.61L228.09,418.25L227.97,418.35L227.71,418.58L227.23,418.97L226.81,419.32L226.4,419.64L226.03,419.92L225.99,419.95L225.52,420.15L225.44,420.25L225.34,420.65L225.3,420.75L225.38,420.97L225.47,421.32L225.44,421.5L225.12,421.72L224.97,421.92L224.9,422.05L224.85,422.01L224.75,422L224.52,422.05L224.41,422.06L224.31,422.12L224.3,422.24L224.36,422.45L224.39,422.55L224.32,422.6L224.04,422.72L223.93,422.84L223.82,423.02L223.69,423.1L223.56,423.08L223.47,423.11L223.28,423.25L222.98,423.52L222.82,423.72L222.82,423.87L222.85,424L221.77,423.53L221.41,423.45L219.9,423.46L219.25,423.27L218.51,422.91L218.01,422.59L216.84,421.67L216.92,421.6L216.98,421.43L217.05,421.25L217.01,421.05L216.98,420.89L217.07,420.65L217.06,420.47L217.1,420.36L217.23,420.29L217.29,420.15L216.93,419.68L216.93,419.57L216.98,419.44L217.27,418.93L217.62,418.33L218.01,417.66L218.24,417.26L219.09,417.26L219.65,417.26L220.37,417.26L221.14,417.26L221.65,417.26L221.86,417.26L221.83,417L221.85,416.71L221.95,416.45L221.95,416.33L221.79,416.19L221.5,416.11L221.34,415.98L221.34,415.83L221.26,415.63L221.12,415.41L220.83,415.18L220.38,414.94L220,414.63L219.68,414.23L219.41,413.98L219.21,413.87L219.16,413.81L219.76,413.82L220.33,413.82L220.33,413.25L220.34,412.75L220.34,412.17L221.37,412.17L222.6,412.17L223.88,412.18L224.88,412.18z"/>
		<path id="HN" title="Honduras" class="land" d="M234.7,416.13l-0.21,0.17l-0.04,-0.08l0.1,-0.16l0.13,-0.09l0.12,0.01l-0.03,0.07L234.7,416.13zM233.16,416.37l-0.45,0.23l-0.14,0l0.21,-0.18l0.33,-0.15l0.28,-0.07l0.23,0.03L233.16,416.37zM242.32,420.38l-0.72,-0.04l-0.34,0.09l-0.15,0.2l-0.13,0.09l-0.11,-0.02l-0.22,0.08l-0.33,0.18l-0.29,0.07l-0.26,-0.04l-0.08,0.04l-0.02,0.06l-0.04,0.06l-0.1,0.03l-0.12,-0.02l-0.13,-0.06l-0.07,0.03l-0.01,0.12l-0.07,0.03l-0.13,-0.05l-0.15,0.04l-0.17,0.14l-0.24,0.03l-0.3,-0.08l-0.24,-0.15l-0.17,-0.22l-0.2,-0.06l-0.35,0.17l-0.15,0.19l-0.03,0.12l0.03,0.11l-0.06,0.07l-0.16,0.04l-0.12,0.13l-0.08,0.23l-0.02,0.17l0.05,0.12l-0.08,0.09l-0.21,0.06l-0.25,0.19l-0.29,0.33l-0.29,0.23l-0.29,0.13l-0.14,0.15l0.01,0.16l-0.02,0.05l-0.05,0.02l-0.09,0.02l-0.55,-0.35l-0.16,-0.24l-0.14,0.04l-0.17,0.12l-0.24,0.27l-0.26,0.37l-0.13,0.04l-0.65,-0.06l-0.35,0.03l-0.07,0.05l-0.03,0.14l0.02,0.18l0.1,0.65l0.05,0.27l-0.05,0.08l-0.18,0.01l-0.23,0.04l-0.13,0.12l-0.03,0.13l-0.01,0.18l-0.07,0.18l-0.14,0.13l-0.14,0.05l-0.78,0.03l0.01,-0.3l-0.23,-0.12l-0.13,-0.25l-0.11,-0.17l0.04,-0.1l-0.01,-0.12l-0.32,-0.09l-0.3,0.07l-0.17,-0.05l-0.13,-0.06l0.22,-0.15l0.02,-0.09l-0.07,-0.07l-0.07,-0.04l0.02,-0.17l0.04,-0.2l0.12,-0.47l-0.05,-0.08l-0.2,-0.14l-0.25,-0.01l-0.28,0.04l-0.13,-0.07l-0.12,-0.16l-0.2,-0.08l-0.35,0.13l-0.37,0.19l-0.11,0.07l-0.09,-0.01l-0.04,-0.14l-0.02,-0.17l-0.02,-0.04l-0.2,-0.06l-0.23,-0.04l-0.12,-0.05l-0.11,-0.12l-0.28,-0.15l-0.06,-0.11l-0.37,-0.26l-0.08,-0.13l-0.08,-0.09l-0.18,-0.12l-0.14,0.03l-0.47,-0.15l-0.07,-0.01l0.06,-0.13l0.15,-0.2l0.32,-0.22l0.03,-0.18l-0.08,-0.34l-0.08,-0.22l0.05,-0.1l0.1,-0.4l0.08,-0.09l0.47,-0.2l0.04,-0.03l0.37,-0.28l0.41,-0.32l0.42,-0.35l0.47,-0.39l0.26,-0.23l0.12,-0.1l0.27,0.08l0.21,-0.19l0.12,-0.06l0.29,-0.22l0.09,-0.05l0.49,-0.09l0.23,0l0.21,0.22l0.16,0.12l0.31,-0.11l0.26,-0.02l1.06,0.21l0.42,-0.09l0.77,-0.02l0.35,0.05l0.49,-0.3l0.32,-0.06l0.37,-0.14l-0.05,-0.14l-0.09,-0.06l0.57,0.06l0.84,0.3l0.9,-0.05l0.32,-0.16l0.21,-0.05l0.92,0.31l0.24,0.24l0.19,0.02l0.15,-0.05l0.04,-0.05l-0.18,-0.05l-0.08,-0.07l0.73,0.15l1.36,1.12l0.03,0.09l-0.58,-0.33l-0.31,0.03l-0.08,0.05l0.02,0.18l0.03,0.08l0.13,0.01l0.1,-0.05l0.24,0.06l0.16,0.12l0.19,0.18l0.12,0.2l0.13,0l0.12,-0.12l0.23,-0.01l0.15,0.13l0.11,-0.01l-0.15,-0.21l-0.35,-0.21l0.08,-0.01l0.78,0.37l0.22,0.47l0.18,0.11L242.32,420.38z"/>
		<path id="MX" title="Mexico" class="land" d="M203.06,387.65l-0.05,0.64l-0.17,0.52l-0.56,1.09l-0.23,0.67l-0.45,1.92l-0.14,1.25l-0.03,0.59l-0.04,0.08l0.04,0.09l-0.11,1.3l0.06,1.1l-0.04,0.17l-0.16,0.33l-0.12,0.46l0.05,0.2l0,0.14l0.17,0.7l0.05,0.52l0.5,0.89l0.28,0.31l0.35,0.27l0.13,0.15l-0.06,0.38l-0.14,0.19l-0.06,0.3l-0.07,-0.25l0.03,-0.33l0.11,-0.18l0,-0.13l-0.21,-0.14l-0.38,-0.45l-0.46,-0.8l0.33,1.27l0.11,0.2l0.09,0.08l0.15,0.09l0.04,0.14l0,0.1l0.4,0.88l0.46,0.91l0.02,0.25l0.18,0.3l1.16,1.27l0.71,0.95l0.25,0.9l0.15,0.28l0.07,0.38l0.46,0.43l0.14,0.28l0.25,0.15l0.2,0.46l0.38,0.27l-0.09,0l-0.33,-0.14l0.02,0.09l0.28,0.19l0.55,0.19l0.14,0l-0.22,-0.1l-0.18,-0.13l0.06,-0.02l0.38,0.16l1.06,0.05l0.47,0.38l0.61,0.16l0.33,0.49l0.38,0.51l0.24,0.02l0.19,0l0.57,-0.09l0.89,-0.32l0.31,-0.16l0.6,-0.21l0.91,-0.04l0.28,0.06l0.68,-0.13l0.32,-0.16l0.11,-0.15l0.05,-0.11l0.63,-0.16l0.12,-0.03l0.64,-0.03l0.31,-0.06l0.36,-0.03l0.26,0.23v0.11l-0.17,0.11l0.08,0.1l0.31,0.17l0.57,0.07l0.18,-0.03l0.26,-0.25l0.46,-0.24l-0.01,-0.28l-0.08,-0.15l-0.13,-0.01l-0.03,-0.09l0.09,-0.21l-0.02,-0.07l-0.29,0.2l-0.07,0l0.03,-0.09l0.06,-0.07l0.84,-0.44l0.22,-0.18l0.29,-0.16l0.61,-0.59l0.13,-1.12l0.12,-0.2l0.4,-0.34l0.04,-0.1l0.03,-0.23l-0.01,-0.59l0.02,-0.46l-0.02,-0.53l0.07,-0.47l0.07,-0.13l0.23,-0.75l0.48,-0.33l0.83,-0.39l0.19,-0.07l2.64,-0.42l0.37,-0.1l0.45,-0.27l0.33,-0.09l0.6,0.01l0.19,-0.04l0.04,-0.04l0,-0.04l0.11,-0.04l0.35,0.04l0.65,0.16l0.24,0.04l0.58,0.19l0.64,0.08l0.09,-0.03l0.09,-0.06l0.07,-0.11l-0.07,-0.1l-0.06,0.01l-0.11,0.05l-0.13,0l-0.25,-0.08l0.05,-0.07l0.26,0.01l0.17,-0.03l0.25,-0.12l0.26,0.09l0.35,0.39l0.25,0.12l0.02,0.56l0.04,0.1l0.09,0.15l-0.12,0.43l-0.14,0.36l-0.17,0.29l-0.37,0.46l-0.45,0.37l-0.56,0.82l-0.13,0.38l0,0.31l0.1,0.3l-0.03,0.11l-0.07,0.11l-0.11,-0.01l-0.22,0.14l-0.29,0.42l-0.01,0.13l0.13,0.12l0.16,-0.06l0.21,0l0.12,-0.04l0.13,0.01l-0.03,0.24l-0.13,0.17l-0.08,0.05l-0.15,0.03l-0.17,0.1l-0.09,0.09l0.01,0.28l0.09,0.02l0.2,-0.21l0.12,0.01l0.02,0.09l-0.26,0.71l-0.17,0.73l-0.23,0.42l-0.08,0.61l-0.12,0.26l-0.14,0.26l-0.08,-0.01l-0.22,-0.49l-0.22,-0.13l-0.05,-0.12l0.13,-0.6l-0.06,-0.33l-0.12,0.01l-0.15,0.18l-0.2,0.16l0,0.23l-0.23,0.38l-0.06,0.12l-0.22,-0.03l-0.25,0.02l-0.17,0.09l-0.18,0.46l-0.44,0.64l-0.18,0.31l-0.14,0.11l-0.11,0.04l-0.13,-0.07l-0.3,-0.18l-0.23,0.08l-0.08,0.2l0,0.26l-0.59,0l-1,0l-1.28,0l-1.23,0l-1.03,0l0,0.57l0,0.51l0,0.57l-0.57,0l-0.6,0l0.05,0.06l0.21,0.11l0.27,0.26l0.31,0.4l0.38,0.32l0.45,0.24l0.3,0.23l0.14,0.23l0.07,0.19l0,0.16l0.16,0.12l0.29,0.08l0.15,0.14v0.12l-0.09,0.26l-0.03,0.29l0.04,0.26l-0.21,0h-0.51l-0.78,0l-0.71,0l-0.56,0l-0.85,0l-0.23,0.4l-0.39,0.66l-0.35,0.6l-0.29,0.51l-0.05,0.13l0,0.11l0.36,0.47l-0.07,0.14l-0.13,0.07l-0.04,0.11l0.01,0.18l-0.09,0.24l0.03,0.16l0.05,0.2l-0.08,0.18l-0.06,0.17l-0.07,0.07l-0.08,-0.06l-0.75,-0.78l-0.78,-0.86l-0.31,-0.28l-0.3,-0.21l-0.4,-0.4l-1.05,-0.88l-0.54,-0.4l-0.51,-0.48l-0.46,-0.27l-0.45,-0.17l-0.2,-0.1l-0.18,-0.13l-0.1,-0.01l-0.05,0.18l0.16,0.09l0.19,0.08l0.15,0.01l0.16,0.06l0.46,0.24l0.08,0.13l-1.32,-0.49l-0.54,-0.04l-0.06,-0.08l0.27,-0.25l-0.08,-0.09l-0.1,-0.01l-0.29,0.18l-0.11,0.01l-0.02,-0.12l0.01,-0.11l-0.18,-0.16l-0.12,0.01l-0.1,0.11l-0.25,0.21l0.01,0.08l0.49,0.09l0.17,0.05l-0.04,0.06l-0.42,0l-0.52,0.1l-0.93,0.59l-0.86,0.25l-1.24,0.56l-0.55,0.03l-0.29,0.09l-0.83,-0.22l-1.06,-0.53l-1.6,-0.17l-1.08,-0.7l-1.07,-0.29l-0.68,-0.67l-0.41,-0.03l-0.26,-0.11l-0.97,-0.24l-0.96,-0.16l-0.94,-0.58l-0.61,-0.19l-0.53,-0.23l-1.17,-0.4l-0.43,-0.22l-0.41,-0.34l-0.67,-0.35l-0.29,-0.3l-0.32,-0.11l-0.46,-0.56l-0.24,-0.24l-0.2,-0.11l-0.22,-0.04l-0.62,0.04l-0.93,-0.25l-0.43,-0.06l-0.9,-0.36l-1.19,-0.41l-0.39,-0.47l-0.33,-0.44l-0.6,-0.58l-0.37,-0.25l-0.65,-0.29l-0.36,-0.24l-0.55,-0.18l-0.94,-0.46l-0.3,-0.4l-0.18,-0.35l-0.5,-0.43l-0.55,-0.8l-0.14,-0.29l-0.11,-0.45l-0.13,-0.26l-0.15,-0.21l0.08,-0.15l0.28,-0.18l0.46,-0.04l0.33,-0.2l0.04,-0.16l-0.02,-0.1l-0.21,-0.25l-0.26,-0.07l-0.2,0l-0.05,-0.1l0.15,-0.1l0.17,-0.25l0.26,-0.3l0.18,-0.28l0.03,-0.39l-0.02,-0.39l0.07,-0.33l-0.63,-0.38l-0.07,-0.16l-0.2,-0.44l-0.34,-0.51l0.01,-1.02l-0.41,-0.91l-0.43,-0.45l-0.22,-0.16l-0.6,-0.7l-0.47,-0.41l-0.46,-0.77l-0.46,-0.49l-0.58,-0.82l-0.42,-0.41l-1.91,-1.4h0.11l0.56,0.34l0.09,-0.03l0.01,-0.17l-0.06,-0.2l-0.1,-0.05l-0.15,0.04l-0.2,-0.04l-0.1,-0.07l-0.3,-0.04l-0.38,-0.23l-0.16,-0.24l-0.02,-0.28l-0.54,-0.59l-0.21,-0.33l0.1,0.02l0.14,0.13l0.15,0.04l0.17,0l0.12,-0.05l-0.04,-0.1l-0.12,-0.08l-0.79,-0.31l-0.26,-0.22l-0.65,-0.36l-0.15,-0.13l-0.1,-0.35l-0.16,-0.02l-0.14,0.1l-0.38,0.1l-0.1,-0.11l-0.01,-0.11l0.27,-0.11l0.25,-0.33l0,-0.12l-0.14,0.13l-0.21,0.15l-0.21,0.08l-0.32,0.07l-0.16,-0.05l-0.14,-0.08l-0.23,-0.29l-0.11,-0.95l0.2,-0.33l0.23,-0.33l0.2,-0.19l0.11,0.15l0.12,0.02l-0.08,-0.17l-0.2,-0.15l-0.07,-0.15l-0.01,-0.14l-0.09,-0.26l-0.58,-0.55l-0.54,0.04l-0.22,-0.02l-0.21,-0.21l-0.18,-0.35l-0.09,-0.3l-0.01,-0.16l-0.05,-0.16l-0.94,-0.26l-0.28,-0.22l-0.28,-0.28l-0.12,-0.23l-0.12,-0.17l-0.09,-0.3l-0.06,-0.35l0.1,-0.45l0.14,-0.22l-0.64,-0.16l-0.25,-0.01l-0.2,0.09l-0.18,-0.12l-0.38,-0.13l-0.45,-0.47l-0.53,-0.85l-0.58,-0.27l-0.19,-0.3l-0.24,-0.27l-0.21,-0.33l-0.03,-0.14l-0.06,-0.08l-0.29,-0.23l-0.33,-0.39l-0.08,-0.32l-0.09,-0.48l-0.22,-0.17l-0.22,-0.08l-0.04,-0.23l0.01,-0.13l-0.07,-0.25l-0.44,-0.59l-0.23,-0.48l-0.12,-0.15l-0.12,-0.22l-0.06,-0.45l-0.18,-0.56l-0.36,-0.68l-0.3,-0.46l-0.15,-0.46l0.07,-0.47l-0.05,-0.29l-0.04,-0.07l0.03,-0.1l0.1,0.05l0.08,-0.08l-0.01,-0.3l-0.1,-0.09l-0.29,-0.09l-0.13,-0.06l-0.7,-0.12l-0.4,-0.17l-0.03,-0.4l-0.19,-0.18l-0.17,-0.11l-0.53,-0.23l-0.08,0.12l-0.07,0.22l-0.22,0.05l-0.19,0.01l-0.32,-0.15l-0.8,-0.59l-0.17,-0.09l-0.25,-0.05l-0.12,-0.1l-0.54,-0.31l0.11,0.16l0.16,0.17l0.14,0.5l-0.16,0.36l-0.09,1.25l0.1,0.25l0.23,0.4l0.16,0.63l0.05,0.47l0.15,0.37l-0.05,0.87l0.06,0.26l0.22,0.43l0.41,0.41l0.09,0.21l0.54,0.31l0.33,0.4l0.65,0.55l0.21,0.23l0.59,0.85l0.02,0.25l0.11,0.31l0.33,-0.06l0.15,0.23l-0.02,0.11l0.04,0.08l0.17,-0.02l0.15,0.06l0.31,0.91l0.17,0.12l0.22,0.05l0.24,0.1l0.02,0.23l-0.01,0.19l0.2,0.27l-0.03,0.36l0.17,0.31l-0.02,0.3l0.07,0.24l0.51,0.53l0.63,0.42l0.13,0.55l0.26,0.51l0.26,0.13l0.26,0.21l-0.03,0.22l0.02,0.13l0.35,0.4l0.06,0.51l0.31,0.33l0.09,0.03l0.07,-0.05l-0.22,-0.33l-0.11,-0.22l-0.01,-0.34l0.07,-0.05l0.63,0.54l0.07,0.4l0.21,0.23l0.02,0.31l0.13,0.18l0.04,0.26l0.2,0.43l0,0.6l0.11,0.44l0.4,0.67l0.32,0.14l0.06,0.33l0.34,0.85l0.39,0.46l0.19,0.39l0.03,0.24l-0.15,0.36l-0.02,0.25l0.21,0.76l0.31,0.39l0.35,0.09l0.06,0.06l-0.03,0.1l0.12,0.09l0.13,-0.12l0.06,-0.17l-0.07,-0.2l-0.01,-0.14l0.06,-0.1l0.11,-0.02l0.67,0.52l0.11,0.2l0.25,0.23l0.23,0.29l0.1,0.23l0.18,0.19l0.1,0.43l0.47,0.19l0.25,0.36l0.02,0.23l-0.12,0.58l-0.11,0.17l-0.38,0.25l-0.27,0.29l-0.27,0.18l-0.28,0.11l-0.23,-0.02l-0.22,-0.34l-0.27,-1.02l-0.18,-0.21l-0.13,-0.32l-0.21,-0.27l-0.75,-0.4l-0.38,-0.43l-0.37,-0.28l-0.39,-0.41l-1.08,-0.68l-0.45,-0.35l-0.29,-0.35l-0.19,0l-0.15,0.04l-0.06,-0.09l-0.01,-0.18l-0.06,-0.12l-0.63,-0.52l-0.13,-0.29l-0.03,-0.34l0.14,-0.87l0.06,-0.51l-0.04,-0.26l-0.07,-0.04l-0.06,-0.14l-0.01,-0.42l-0.15,-0.46l-0.57,-0.94l-0.42,-0.19l-0.37,-0.13l-1.02,-0.83l-0.28,-0.42l-0.07,-0.24l-0.04,-0.48l-0.14,0.28l-0.19,0.21l-0.43,-0.02l-0.48,0.23l-0.29,-0.22l-0.16,-0.25l-0.24,-0.3l-0.27,-0.06l-0.17,-0.01l-0.32,-0.37l-0.26,-0.12l-0.37,-0.05l-0.31,-0.19l-0.1,-0.21l-0.05,-0.29l-0.12,-0.17l-0.49,-0.34l-0.4,-0.38l-0.38,-0.24l-0.11,-0.2l-0.01,-0.14l0.6,0.04l0.71,0.15l0.34,-0.04l0.21,-0.14l0.2,-0.1l0.03,0.11l-0.04,0.2l0.2,0.18l0.27,0.15l0.19,-0.01l-0.18,-0.16l-0.11,-0.33l0.05,-0.12l0,-0.16l-0.26,0.04l-0.04,-0.08l0.23,-0.25l0.26,-0.66l0.12,-0.65l-0.27,-0.57l-0.46,-0.4l-1,-1.16l-0.59,-0.6l-0.17,-0.22l-0.16,-0.1l-0.48,-0.14l-0.41,-0.34l-0.71,-0.48l-0.3,-0.25l-0.21,-0.58l-0.17,-0.08l0.05,-0.4l-0.07,-0.71l-0.12,-0.18l-0.39,-0.18l-0.09,-0.48l-0.02,-0.46l-0.08,-0.32l-0.66,-0.54l-0.04,-0.26l0,-0.25l-0.07,-0.25l-0.35,-0.52l-0.42,-0.45l-0.15,-0.22l-0.02,-0.44l-0.15,-0.12l0.06,-0.03l0.14,0.01l0.08,-0.06l0.01,-0.31l-0.64,-0.48l-0.18,-0.66l-0.34,-0.35l-0.08,-0.13l-0.18,-0.63l0.8,-0.07l0.8,-0.07l0.8,-0.07l0.8,-0.07l0.8,-0.07l0.8,-0.07l0.8,-0.07l0.8,-0.07l0.32,-0.04l-0.18,0.5l-0.13,0.19l1.33,0.49l1.33,0.49l1.33,0.49l1.33,0.49l1.33,0.49l1.33,0.49l1.33,0.48l1.33,0.48l0.99,0l0.99,0l0.99,0l0.99,0l0.99,0l0.99,0l0.99,0l0.99,0l0,-0.37l0,-0.37l0,-0.37l0,-0.37l0.62,0l0.62,0l0.62,0l0.62,0l0.62,0l0.62,0l0.62,0l0.62,0l0.02,0.01l0.03,0.01l0.25,0.28l0.26,0.44l0.3,0.31l0.35,0.17l0.59,0.51l0.84,0.85l0.67,0.56l0.5,0.28l0.33,0.24l0.17,0.2l0.23,0.44l0.43,1.01v0.46l0.17,0.44l0.33,0.57l0.29,0.33l0.25,0.1l0.27,0.2l0.29,0.3l0.34,0.2l0.38,0.1l0.53,0.27l0.68,0.44l0.46,0.22l0.25,0.01l0.22,-0.14l0.19,-0.29l0.19,-0.19l0.18,-0.08l0.07,-0.13l-0.03,-0.18l0.12,-0.41l0.28,-0.64l0.33,-0.35l0.39,-0.05l0.25,-0.12l0.12,-0.19l0.21,-0.02l0.3,0.15l0.48,0.1l0.67,0.04l0.4,-0.01l0.12,-0.07l0.06,0l0,0.08l0.1,0.03l0.19,-0.01l0.17,0.11l0.22,0.35l0.74,0.56l0,0l0.06,0.19l0.26,0.28l0.48,0.42l0.27,0.36l0.06,0.31l0.24,0.48l0.42,0.66l0.19,0.35l-0.05,0.05l0.03,0.19l0.11,0.32l0.21,0.27l0.31,0.22l0.31,0.4l0.31,0.57l0.38,0.43l0.45,0.3l0.25,0.28l0.06,0.25l0,0.22l-0.07,0.18l0.03,0.17l0.13,0.16l0.04,0.2l-0.05,0.28l0,0.08v0l0.04,0.06l0.4,0.48l0.2,0.38l0.16,0.61l0,0.01l0.18,0.37l0.26,0.15l0.4,0.06l0.3,0.13l0.21,0.2l0.26,0.12l0.32,0.04l0.3,0.13l0.29,0.22l0.54,0.15l0.79,0.07l0.6,0.18l0.41,0.29l0.18,0.06l0.05,0l0.02,-0.04l0.03,-0.08l0.16,-0.09L203.06,387.65zM153.81,369.33l-0.09,0.01l-0.17,-0.15l0.01,-0.14l0.04,-0.01l0.17,0.12l0.06,0.11L153.81,369.33zM158.13,377.92l-0.02,0.06l-0.29,-0.2l-0.65,-0.67l-0.24,-0.34l-0.04,-0.16l0.02,-0.35l0.22,0.04l0.26,0.24l0.11,0.22l0.01,0.25l0.48,0.12l0.07,0.54L158.13,377.92zM160.8,378.07l-0.21,0.75l-0.22,-0.01l-0.45,-0.24l-0.05,-0.15l0.17,-0.87l0.13,-0.11l0.39,-0.12l0.06,0.11l0.04,0.26L160.8,378.07zM143.85,378.27l-0.12,0.12l-0.32,-0.67l0,-0.16l0.09,-0.08l0.16,0.02l0,0.17l0.13,0.14l0.05,0.14L143.85,378.27zM152.47,381.05l-0.04,0.1l-0.47,-0.21l0.26,-0.37l-0.04,-0.39l0.11,-0.08l0.1,0.13l0.14,0.49L152.47,381.05zM163.9,387.47l0.04,0.11l-0.02,0.03l-0.11,-0.08l-0.19,0.46l-0.06,0.04l0.12,-0.64l0.12,-0.09l0.14,-0.02L163.9,387.47zM161.21,392.02l-0.06,0.03l-0.24,-0.36l-0.04,-0.24l-0.1,-0.1l-0.24,-0.08l0.21,-0.5l0.18,-1.03l0.08,0.19l-0.19,1.04l0.01,0.14l0.09,0.13l0.09,0.22l0.01,0.23l0.17,0.22L161.21,392.02zM165.39,390.61l0.08,0.34l-0.14,-0.05l-0.19,-0.19l-0.13,-0.24l0.01,-0.11l0.03,-0.02l0.27,0.14L165.39,390.61zM162.22,392.49l-0.04,0.14l-0.84,-0.57l0.2,-0.05l0.24,0.04L162.22,392.49zM167.53,393.23l-0.06,0.01l-0.14,-0.16l-0.06,-0.4l0.03,-0.04l0.27,0.49l0,0.06L167.53,393.23zM176.8,400.92l-0.08,0.25l-0.21,-0.1l-0.08,-0.16l-0.01,-0.25l0.12,-0.04l0.17,0.11l0.04,0.07L176.8,400.92zM232.34,402.04l0.05,0.14l-0.05,-0.02l-0.06,-0.11l-0.05,-0.14l0.04,0l0.03,0.05L232.34,402.04zM231.7,404.83l-0.15,0.09l-0.08,-0.33l0.12,-0.32l0.14,-0.18l0.28,-0.02l0.18,-0.06l0.02,0.08l-0.15,0.25L231.7,404.83zM164.42,409.46l-0.17,0.06l-0.25,-0.18l0.07,-0.14l0.14,-0.1l0.13,0.18L164.42,409.46zM218.39,409.64l-0.32,0.07l-0.06,-0.06l0.64,-0.3l0.11,0.01l0.04,0.04l-0.33,0.14L218.39,409.64z"/>
		<path id="NI" title="Nicaragua" class="land" d="M242.32,420.38L242.24,420.49L242.16,420.56L241.98,420.9L241.91,420.93L241.9,420.68L241.79,420.65L241.67,420.74L241.6,420.87L241.71,421.04L241.81,421.04L241.92,421.09L242.23,422.26L242.17,422.47L241.97,422.8L241.79,423.08L241.6,423.25L241.38,423.99L241.17,425.19L241.32,426.27L241.24,427.27L241.31,427.5L241.33,427.79L241.17,427.85L241.09,427.84L241,427.66L241.01,427.5L241.1,427.31L241.14,427.06L241.1,426.93L241.01,427.22L240.85,427.35L240.75,427.39L240.64,427.54L240.75,427.81L240.89,428.01L240.93,428.15L240.88,428.32L240.85,428.9L240.8,428.88L240.75,428.8L240.61,428.8L240.59,429.03L240.6,429.16L240.48,429.26L240.44,429.36L240.54,429.43L240.65,429.48L240.78,429.47L240.9,429.75L240.93,429.99L240.67,430.2L240.58,430.38L240.43,430.6L240.35,430.81L240.33,430.96L240.43,431.44L240.61,431.78L240.76,432L240.96,432.05L240.91,432.28L240.76,432.42L240.48,432.54L240.18,432.56L239.68,432.45L239.48,432.44L239.4,432.38L239.38,432.26L239.24,432.09L238.98,431.87L238.83,431.89L238.58,431.84L238.17,431.68L237.99,431.67L237.72,431.8L237.4,431.97L236.65,431.7L236.11,431.51L235.64,431.34L235.51,431.27L235.4,431.29L235.31,431.38L235.21,431.54L235.18,431.58L235.12,431.63L235.06,431.64L235.06,431.56L234.82,431.25L234.45,430.87L233.03,429.71L232.5,429.02L232.22,428.52L231.95,428.26L231.18,427.73L231.01,427.52L230.24,426.8L229.66,426.39L229.65,426.21L229.89,425.99L230.01,426L230.14,426.16L230.34,426.34L230.44,426.34L230.58,426.25L230.59,426.17L231.37,426.14L231.51,426.09L231.65,425.96L231.72,425.77L231.73,425.6L231.76,425.47L231.89,425.35L232.12,425.31L232.29,425.3L232.35,425.21L232.29,424.94L232.2,424.29L232.18,424.11L232.21,423.97L232.28,423.92L232.63,423.89L233.28,423.95L233.41,423.9L233.67,423.53L233.92,423.26L234.09,423.14L234.23,423.1L234.39,423.34L234.94,423.69L235.03,423.67L235.09,423.65L235.11,423.6L235.1,423.44L235.23,423.29L235.52,423.16L235.81,422.93L236.1,422.6L236.35,422.4L236.56,422.35L236.64,422.26L236.59,422.13L236.61,421.96L236.7,421.73L236.82,421.6L236.98,421.57L237.05,421.49L237.01,421.39L237.04,421.27L237.19,421.08L237.54,420.91L237.74,420.97L237.91,421.19L238.14,421.34L238.45,421.42L238.68,421.39L238.85,421.25L239,421.21L239.14,421.26L239.21,421.23L239.21,421.12L239.28,421.09L239.41,421.15L239.53,421.17L239.63,421.14L239.67,421.08L239.69,421.02L239.77,420.98L240.03,421.02L240.33,420.96L240.65,420.78L240.87,420.7L240.98,420.72L241.11,420.63L241.26,420.43L241.6,420.34z"/>
		<path id="PA" title="Panama" class="land" d="M258.55,438.44l-0.05,0.04l-0.16,0.22l-0.08,0.19l0.2,0.2l0.06,0.21l0.11,0.23l0.18,0.23l0.2,0.43l0.05,0.17l-0.06,0.11l-0.19,0.07l-0.18,0.2l-0.05,0.25l0.03,0.12l-0.53,0.39l-0.14,0.06l-0.09,-0.06l-0.11,-0.2l-0.13,-0.16l-0.07,-0.06l-0.04,0l-0.04,0.04l-0.02,0.09l0.07,0.37l-0.06,0.15l-0.18,0.12l-0.2,0.6l-0.08,-0.08l-0.67,-0.81l-0.58,-1l-0.12,-0.45l0.15,-0.03l0.15,0.01l0.08,-0.07l0.09,-0.13L256,439.6l0.28,-0.23l0.11,-0.16l0.08,0.02l0.19,0.27l0.27,0.15l0.33,0.22l0.21,0.05l-0.26,-0.23l-0.45,-0.31l-0.13,-0.2l-0.12,-0.28l-0.18,0.12l-0.08,0.1l-0.09,0.06l-0.08,-0.07l-0.01,-0.09l-0.26,-0.02l-0.07,-0.08l-0.07,-0.05l0.03,0.18l0.05,0.11l-0.03,0.13l-0.09,0.01l-0.07,-0.14l-0.09,-0.12l-0.13,-0.51l-0.3,-0.24l-0.14,-0.08l-0.11,-0.03l-0.17,-0.16l-0.22,-0.09l-0.3,-0.25l-0.37,-0.18l-0.45,-0.06l-0.55,0.04l-0.18,0.1l-0.13,0.13l-0.06,0.06l-0.32,0.15l-0.12,0.21l-0.08,0.18l-0.16,0.2l0.18,0.12l-1.05,0.69l-0.21,0.1l-0.47,0.07l-0.11,0.07l-0.14,0.14l-0.02,0.21l0.02,0.18l0.14,0.14l0.12,0.09l0.29,0.41l0.52,0.52l0.1,0.19l0.08,0.28l-0.16,0.13l-0.12,0.06l-0.5,0.02l-0.17,0.11l-0.07,0.17l-0.19,0.14l-0.64,0.14l-0.5,0.02l-0.16,-0.16l-0.04,-0.45l-0.34,-0.77l-0.08,-0.53l-0.08,0.07l-0.18,0.06l-0.06,0.13l-0.04,0.39l-0.07,0.13l-0.14,-0.01l-0.28,-0.14l-0.38,-0.13l-0.48,-0.83l-0.05,-0.16l-0.09,-0.19l-0.37,-0.08l-0.32,-0.14l-0.35,-0.02l-0.18,0.08l-0.18,-0.1l-0.03,-0.23l-0.36,0.1l-0.47,-0.04l-0.42,-0.1l-0.29,0.05l-0.24,0.16l0.03,0.41l-0.07,0.08l-0.01,-0.17l-0.08,-0.19l-0.1,-0.16l-0.21,-0.17l-0.01,-0.06l0.08,-0.08l0.38,-0.24l0.05,-0.1l0.01,-0.21l-0.04,-0.2l-0.17,-0.3l0.1,-0.18l0.2,-0.15l0.2,-0.12l0.03,-0.05l-0.04,-0.1l-0.12,-0.11l-0.28,-0.19l-0.17,-0.01l-0.01,-0.53l0.01,-0.57l0.04,-0.06l0.1,-0.03l0.08,-0.09l0.04,-0.17l0.12,-0.06l0.22,0.13l0.22,0.11l0.09,-0.04l0.07,-0.06l0.05,-0.05l0.02,-0.05l0.18,0.15l0.36,0.27l0.02,0.13l-0.03,0.13l0.1,0.36l0.19,0.05l0.19,-0.07l0.05,0.07L245,437l-0.1,0.07l-0.02,0.31l0.31,0.15l0.16,0.13l0.52,-0.06l0.19,0.03l0.13,-0.04l-0.14,-0.25l-0.19,-0.18l0.02,-0.08l0.15,0.06l0.11,0.13l0.25,0.16l0.47,0.54l0.54,0.13l0.42,-0.02l0.4,-0.07l0.63,-0.21l0.46,-0.38l0.36,-0.17l1.18,-0.36l0.42,-0.38l0.18,-0.05l0.17,-0.05l0.37,-0.29l0.2,-0.22l0.21,-0.11l0.62,0.08l0.4,0.11l0.28,-0.01l0.27,0.07l0.12,0.16l0.12,0.07l0.66,-0.02l0.54,0.08l1.18,0.48l0.71,0.48l0.38,0.5L258.55,438.44zM244.91,436.4l-0.03,0.13l-0.22,-0.24l0.13,-0.04l0.05,0L244.91,436.4zM254.27,439.52l-0.06,0.12l-0.13,-0.27l0.02,-0.07l-0.01,-0.24l0.13,-0.06l0.09,-0.01l0.08,0.03l0.05,0.28l-0.04,0.13L254.27,439.52zM253.8,439.58l-0.13,0.13l-0.05,-0.12l0.09,-0.12l0.03,0L253.8,439.58zM246.68,442.17l-0.15,0.02l-0.31,-0.12l-0.23,-0.23l-0.02,-0.08l0,-0.08l0.13,-0.24l0.17,-0.08l0.07,0l0.16,0.27l-0.11,0.11l0.04,0.17l0.23,0.13L246.68,442.17z"/>
		<path id="SV" title="El Salvador" class="land" d="M224.9,422.05L224.98,422.06L225.44,422.21L225.58,422.18L225.76,422.3L225.85,422.39L225.92,422.52L226.29,422.77L226.35,422.88L226.63,423.04L226.74,423.15L226.86,423.2L227.09,423.24L227.29,423.3L227.31,423.35L227.33,423.52L227.37,423.66L227.47,423.67L227.58,423.6L227.95,423.41L228.3,423.28L228.5,423.36L228.62,423.52L228.75,423.59L229.03,423.54L229.28,423.56L229.48,423.7L229.53,423.78L229.41,424.25L229.36,424.45L229.34,424.62L229.41,424.66L229.48,424.73L229.47,424.82L229.25,424.97L229.18,425.01L229.23,425.29L229.07,425.47L228.92,425.59L228.66,425.63L228.22,425.64L227.56,425.5L227.07,425.31L226.8,425.31L226.89,425.37L227.1,425.41L227.37,425.55L227.29,425.58L226.3,425.3L225.14,424.74L224.45,424.65L223.67,424.51L223.2,424.15L222.85,424L222.82,423.87L222.82,423.72L222.98,423.52L223.28,423.25L223.47,423.11L223.56,423.08L223.69,423.1L223.82,423.02L223.93,422.84L224.04,422.72L224.32,422.6L224.39,422.55L224.36,422.45L224.3,422.24L224.31,422.12L224.41,422.06L224.52,422.05L224.75,422L224.85,422.01z"/>
	</g>
</svg>